<svg width="135" height="199" viewBox="0 0 135 199" fill="none" xmlns="http://www.w3.org/2000/svg">
<path d="M94.106 143.899C97.031 134.15 102.881 125.375 110.681 118.549C125.306 106.362 134.569 87.8367 134.569 67.3617C134.569 29.3367 102.881 -1.86343 63.8812 0.086724C29.2684 1.54922 0.993201 30.7992 0.0183536 65.4116C-0.469299 86.8619 8.79335 105.874 23.906 118.549C32.1934 125.374 38.0434 134.149 40.9684 143.899H94.106Z" fill="#C8C5B5"/>
<path d="M52.1807 188.749C54.6185 194.599 60.4685 198.987 67.2933 198.987C74.1182 198.987 79.9682 194.599 82.406 188.749H52.1807Z" fill="#344A5E"/>
<path d="M85.3314 189.236H49.7438C44.8686 189.236 40.9688 185.336 40.9688 180.461V143.411H94.1064V180.461C94.1064 185.336 90.2061 189.236 85.3314 189.236Z" fill="#344A5E"/>
<path d="M93.6188 161.936H40.9688C38.0438 161.936 35.6064 159.499 35.6064 156.574C35.6064 153.649 38.0438 151.211 40.9688 151.211H93.6188C96.5438 151.211 98.9812 153.649 98.9812 156.574C98.9812 159.499 96.5438 161.936 93.6188 161.936Z" fill="#415A6B"/>
<path d="M93.6188 178.999H40.9688C38.0438 178.999 35.6064 176.562 35.6064 173.637C35.6064 170.712 38.0438 168.274 40.9688 168.274H93.6188C96.5438 168.274 98.9812 170.712 98.9812 173.637C98.9812 176.561 96.5438 178.999 93.6188 178.999Z" fill="#415A6B"/>
</svg>
