<svg width="450" height="450" viewBox="0 0 450 450" fill="none" xmlns="http://www.w3.org/2000/svg">
<path d="M225 90C219.292 90 213.818 87.7325 209.782 83.6964C205.746 79.6603 203.478 74.1862 203.478 68.4783V21.5217C203.478 15.8138 205.746 10.3397 209.782 6.30357C213.818 2.26746 219.292 0 225 0C230.708 0 236.182 2.26746 240.218 6.30357C244.254 10.3397 246.522 15.8138 246.522 21.5217V68.4783C246.522 74.1862 244.254 79.6603 240.218 83.6964C236.182 87.7325 230.708 90 225 90ZM225 450C219.292 450 213.818 447.733 209.782 443.696C205.746 439.66 203.478 434.186 203.478 428.478V381.522C203.478 375.814 205.746 370.34 209.782 366.304C213.818 362.267 219.292 360 225 360C230.708 360 236.182 362.267 240.218 366.304C244.254 370.34 246.522 375.814 246.522 381.522V428.478C246.522 434.186 244.254 439.66 240.218 443.696C236.182 447.733 230.708 450 225 450ZM335.68 135.841C331.425 135.841 327.265 134.579 323.726 132.214C320.188 129.85 317.43 126.49 315.801 122.558C314.172 118.627 313.745 114.301 314.574 110.127C315.403 105.953 317.451 102.118 320.459 99.1076L353.661 65.9054C357.715 61.9571 363.16 59.7642 368.819 59.8014C374.478 59.8387 379.894 62.1031 383.895 66.1045C387.897 70.1059 390.161 75.5223 390.199 81.181C390.236 86.8397 388.043 92.2854 384.095 96.3391L350.892 129.541C348.897 131.541 346.525 133.128 343.915 134.209C341.304 135.29 338.506 135.845 335.68 135.841ZM81.1174 390.404C76.8606 390.404 72.6995 389.141 69.1605 386.775C65.6215 384.41 62.8634 381.048 61.2351 377.115C59.6068 373.182 59.1814 368.854 60.0127 364.68C60.844 360.505 62.8947 356.67 65.9054 353.661L99.1076 320.459C101.096 318.417 103.471 316.791 106.093 315.674C108.715 314.557 111.533 313.973 114.383 313.954C117.233 313.935 120.059 314.483 122.695 315.565C125.332 316.647 127.728 318.242 129.743 320.257C131.758 322.272 133.353 324.668 134.435 327.305C135.517 329.941 136.065 332.767 136.046 335.617C136.027 338.467 135.443 341.285 134.326 343.907C133.209 346.529 131.583 348.904 129.541 350.892L96.3391 384.095C94.3427 386.097 91.9702 387.686 89.3579 388.768C86.7457 389.851 83.9452 390.407 81.1174 390.404ZM428.478 246.522H381.522C375.814 246.522 370.34 244.254 366.304 240.218C362.267 236.182 360 230.708 360 225C360 219.292 362.267 213.818 366.304 209.782C370.34 205.746 375.814 203.478 381.522 203.478H428.478C434.186 203.478 439.66 205.746 443.696 209.782C447.733 213.818 450 219.292 450 225C450 230.708 447.733 236.182 443.696 240.218C439.66 244.254 434.186 246.522 428.478 246.522ZM68.4783 246.522H21.5217C15.8138 246.522 10.3397 244.254 6.30357 240.218C2.26746 236.182 0 230.708 0 225C0 219.292 2.26746 213.818 6.30357 209.782C10.3397 205.746 15.8138 203.478 21.5217 203.478H68.4783C74.1862 203.478 79.6603 205.746 83.6964 209.782C87.7325 213.818 90 219.292 90 225C90 230.708 87.7325 236.182 83.6964 240.218C79.6603 244.254 74.1862 246.522 68.4783 246.522ZM368.883 390.404C366.055 390.407 363.254 389.851 360.642 388.768C358.03 387.686 355.657 386.097 353.661 384.095L320.459 350.892C316.51 346.839 314.317 341.393 314.355 335.734C314.392 330.076 316.656 324.659 320.658 320.658C324.659 316.656 330.076 314.392 335.734 314.355C341.393 314.317 346.839 316.51 350.892 320.459L384.095 353.661C387.105 356.67 389.156 360.505 389.987 364.68C390.819 368.854 390.393 373.182 388.765 377.115C387.137 381.048 384.379 384.41 380.84 386.775C377.3 389.141 373.139 390.404 368.883 390.404ZM114.32 135.841C111.494 135.847 108.695 135.293 106.084 134.212C103.473 133.13 101.102 131.543 99.1076 129.541L65.9054 96.3391C61.9571 92.2854 59.7642 86.8397 59.8014 81.181C59.8387 75.5223 62.1031 70.1059 66.1045 66.1045C70.1059 62.1031 75.5223 59.8387 81.181 59.8014C86.8397 59.7642 92.2854 61.9571 96.3391 65.9054L129.541 99.1076C132.549 102.118 134.597 105.953 135.426 110.127C136.255 114.301 135.828 118.627 134.199 122.558C132.57 126.49 129.812 129.85 126.274 132.214C122.735 134.579 118.575 135.841 114.32 135.841ZM225 324.783C205.265 324.783 185.973 318.93 169.564 307.966C153.155 297.002 140.365 281.418 132.813 263.185C125.261 244.952 123.285 224.889 127.135 205.533C130.985 186.177 140.488 168.398 154.443 154.443C168.398 140.488 186.177 130.985 205.533 127.135C224.889 123.285 244.952 125.261 263.185 132.813C281.418 140.365 297.002 153.155 307.966 169.564C318.93 185.973 324.783 205.265 324.783 225C324.752 251.454 314.229 276.816 295.523 295.523C276.816 314.229 251.454 324.752 225 324.783Z" fill="#F2CC05"/>
</svg>
