<svg width="512" height="448" viewBox="0 0 512 448" fill="none" xmlns="http://www.w3.org/2000/svg">
<path d="M340 448H106C76.5 448 51.08 440.17 32.47 425.36C11.23 408.44 0 383.35 0 352.8C0 326.14 10.08 303 29.14 285.89C44.38 272.21 65.31 262.68 88.14 259.05C88.2 259.05 88.22 259.05 88.23 259C94.67 220 112.06 186.91 138.54 163.32C164.301 140.472 197.567 127.9 232 128C262.23 128 290.48 137.39 313.71 155.17C331.863 169.24 346.339 187.497 355.9 208.38C356.935 210.648 358.486 212.643 360.429 214.206C362.371 215.769 364.653 216.855 367.09 217.38C393.09 222.99 415.49 234.67 432.26 251.38C453 272.11 464 299.71 464 331.2C464 364.05 450.87 394.07 427 415.72C404.11 436.54 373.2 448 340 448ZM387.89 189.68C399.99 193.268 411.65 198.203 422.65 204.39C423.181 204.688 423.772 204.861 424.38 204.896C424.987 204.931 425.595 204.827 426.156 204.592C426.717 204.356 427.217 203.996 427.618 203.538C428.019 203.081 428.311 202.537 428.47 201.95C430.881 193.264 432.069 184.284 432 175.27C431.61 122.84 388.52 80.05 336.09 80C316.378 79.9501 297.134 86.0039 281 97.33H280.94C280.422 97.697 280.018 98.2025 279.774 98.7884C279.53 99.3744 279.456 100.017 279.561 100.643C279.665 101.269 279.943 101.853 280.364 102.329C280.785 102.804 281.331 103.151 281.94 103.33C300.471 109.001 317.838 117.942 333.22 129.73C351.699 144.013 367.112 161.871 378.54 182.24C380.579 185.834 383.93 188.5 387.89 189.68ZM496 192H464C459.757 192 455.687 190.314 452.686 187.314C449.686 184.313 448 180.243 448 176C448 171.757 449.686 167.687 452.686 164.686C455.687 161.686 459.757 160 464 160H496C500.243 160 504.313 161.686 507.314 164.686C510.314 167.687 512 171.757 512 176C512 180.243 510.314 184.313 507.314 187.314C504.313 190.314 500.243 192 496 192ZM336 64C331.757 64 327.687 62.3143 324.686 59.3137C321.686 56.3131 320 52.2435 320 48V16C320 11.7565 321.686 7.68687 324.686 4.68629C327.687 1.68571 331.757 0 336 0C340.243 0 344.313 1.68571 347.314 4.68629C350.314 7.68687 352 11.7565 352 16V48C352 52.2435 350.314 56.3131 347.314 59.3137C344.313 62.3143 340.243 64 336 64ZM245.49 101.49C243.389 101.493 241.307 101.081 239.366 100.276C237.425 99.4708 235.662 98.2895 234.18 96.8L211.55 74.18C208.549 71.1791 206.863 67.1089 206.863 62.865C206.863 58.621 208.549 54.5509 211.55 51.55C214.551 48.5491 218.621 46.8632 222.865 46.8632C227.109 46.8632 231.179 48.5491 234.18 51.55L256.8 74.18C259.036 76.4176 260.559 79.2679 261.176 82.3706C261.792 85.4733 261.475 88.6892 260.265 91.6119C259.055 94.5346 257.005 97.033 254.375 98.7912C251.745 100.549 248.653 101.489 245.49 101.49ZM426.51 101.49C423.347 101.489 420.255 100.549 417.625 98.7912C414.995 97.033 412.945 94.5346 411.735 91.6119C410.525 88.6892 410.208 85.4733 410.824 82.3706C411.441 79.2679 412.964 76.4176 415.2 74.18L437.82 51.55C440.821 48.5491 444.891 46.8632 449.135 46.8632C453.379 46.8632 457.449 48.5491 460.45 51.55C463.451 54.5509 465.137 58.621 465.137 62.865C465.137 67.1089 463.451 71.1791 460.45 74.18L437.82 96.8C436.338 98.2895 434.575 99.4708 432.634 100.276C430.693 101.081 428.611 101.493 426.51 101.49Z" fill="#FC8B23"/>
</svg>
