<svg width="204" height="234" viewBox="0 0 204 234" fill="none" xmlns="http://www.w3.org/2000/svg">
<path d="M128.701 178.913C131.626 169.163 137.476 160.388 145.276 153.563C159.901 141.375 169.164 122.85 169.164 102.375C169.164 64.3504 137.476 33.1502 98.4759 35.1004C63.8631 36.5629 35.5879 65.8129 34.6131 100.425C34.1254 121.876 43.3881 140.888 58.5007 153.563C66.7881 160.388 72.6381 169.163 75.5631 178.913H128.701Z" fill="#FAD207"/>
<path d="M86.7754 223.763C89.2132 229.613 95.0632 234 101.888 234C108.713 234 114.563 229.613 117.001 223.763H86.7754Z" fill="#344A5E"/>
<path d="M119.926 224.25H84.3385C79.4633 224.25 75.5635 220.35 75.5635 215.475V178.425H128.701V215.475C128.701 220.35 124.801 224.25 119.926 224.25Z" fill="#344A5E"/>
<path d="M128.214 196.95H75.5635C72.6385 196.95 70.2012 194.512 70.2012 191.587C70.2012 188.662 72.6385 186.225 75.5635 186.225H128.214C131.139 186.225 133.576 188.662 133.576 191.587C133.576 194.512 131.139 196.95 128.214 196.95Z" fill="#415A6B"/>
<path d="M128.214 214.013H75.5635C72.6385 214.013 70.2012 211.575 70.2012 208.65C70.2012 205.725 72.6385 203.288 75.5635 203.288H128.214C131.139 203.288 133.576 205.725 133.576 208.65C133.576 211.575 131.139 214.013 128.214 214.013Z" fill="#415A6B"/>
<path d="M101.888 0C99.4505 0 97.0127 1.95015 97.0127 4.87515V21.4503C97.0127 23.8877 98.9629 26.3255 101.888 26.3255C104.813 26.3255 106.763 24.3753 106.763 21.4503V4.87515C106.763 1.95015 104.325 0 101.888 0Z" fill="#FAD207"/>
<path d="M36.5627 29.7375C34.6125 27.7874 31.6875 27.7874 29.7378 29.7375C27.7881 31.6877 27.7877 34.6127 29.7378 36.5624L41.4378 48.2624C43.388 50.2125 46.313 50.2125 48.2627 48.2624C50.2124 46.3122 50.2128 43.3872 48.2627 41.4375L36.5627 29.7375Z" fill="#FAD207"/>
<path d="M21.4503 97.0127H4.87515C2.4378 97.0127 0 98.9629 0 101.888C0 104.325 1.95015 106.763 4.87515 106.763H21.4503C23.8877 106.763 26.3255 104.813 26.3255 101.888C26.3255 99.45 23.8877 97.0127 21.4503 97.0127Z" fill="#FAD207"/>
<path d="M41.438 155.512L29.738 167.212C27.7879 169.162 27.7879 172.087 29.738 174.037C31.6882 175.987 34.6132 175.987 36.5629 174.037L48.2629 162.337C50.213 160.387 50.213 157.462 48.2629 155.512C46.3127 153.563 43.3882 153.562 41.438 155.512Z" fill="#FAD207"/>
<path d="M162.338 155.512C160.388 153.562 157.463 153.562 155.512 155.512C153.562 157.463 153.562 160.388 155.512 162.337L167.212 174.037C169.163 175.987 172.088 175.987 174.037 174.037C175.987 172.087 175.987 169.162 174.037 167.212L162.338 155.512Z" fill="#FAD207"/>
<path d="M198.9 97.0127H182.325C179.888 97.0127 177.45 98.9629 177.45 101.888C177.45 104.325 179.4 106.763 182.325 106.763H198.9C201.338 106.763 203.776 104.813 203.776 101.888C203.775 99.45 201.826 97.0127 198.9 97.0127Z" fill="#FAD207"/>
<path d="M167.212 29.7373L155.512 41.4373C153.562 43.3875 153.562 46.3125 155.512 48.2622C157.463 50.2123 160.388 50.2123 162.337 48.2622L174.037 36.5622C175.987 34.612 175.987 31.687 174.037 29.7373C172.087 27.7876 169.163 27.7872 167.212 29.7373Z" fill="#FAD207"/>
</svg>
